<svg xmlns="http://www.w3.org/2000/svg" viewBox="0 0 40 40" width="40" height="40">
  <defs>
    <linearGradient id="bg" x1="0" y1="0" x2="1" y2="1">
      <stop offset="0" stop-color="#064e3b"/>
      <stop offset="0.55" stop-color="#047857"/>
      <stop offset="1" stop-color="#b8860b"/>
    </linearGradient>
    <radialGradient id="shine" cx="0.3" cy="0.3" r="0.6">
      <stop offset="0" stop-color="#ffffff" stop-opacity="0.35"/>
      <stop offset="1" stop-color="#ffffff" stop-opacity="0"/>
    </radialGradient>
  </defs>
  <rect x="0" y="0" width="40" height="40" rx="9" fill="url(#bg)"/>
  <rect x="0" y="0" width="40" height="40" rx="9" fill="url(#shine)"/>
  <path d="M6 29 L14 22 L20 25 L32 11" stroke="#fde68a" stroke-width="1.8" stroke-linecap="round" stroke-linejoin="round" opacity="0.55" fill="none"/>
  <path d="M27 11 L32 11 L32 16" stroke="#fde68a" stroke-width="1.8" stroke-linecap="round" stroke-linejoin="round" opacity="0.55" fill="none"/>
  <path d="M26.5 14.2 C26.5 11.6 23.8 10 20 10 C16.4 10 14 11.6 14 14 C14 16.5 16.8 17.2 20 18 C23.2 18.8 26 19.5 26 22.2 C26 24.8 23.4 26.5 20 26.5 C16.4 26.5 14 25 14 22.6" stroke="#ffffff" stroke-width="2.9" stroke-linecap="round" fill="none"/>
  <circle cx="30.5" cy="10.5" r="1.8" fill="#fbbf24"/>
</svg>
